<svg xmlns="http://www.w3.org/2000/svg" width="438.75" height="100.125" viewBox="0 0 438.75 100.125">
  <defs>
    <style>
      .cls-1 {
        fill: #0288d1;
        fill-rule: evenodd;
      }
    </style>
  </defs>
  <path id="logo" class="cls-1" d="M70.908,150.024v-8.116H74.96v8.116h4.056v-8.116H83.08v8.116h3.8V137.852H90.94v12.172H95v-8.116h4.056v8.116h3.8v-8.116h4.056v8.116h4.06V137.852h4.056v12.172h4.056v-8.116h3.8v8.116h4.056v-8.116H131v8.116h4.052V137.852h3.8v12.172H151.02V49.98L50.976,150.024H70.908Zm64.14-61.688V133.8H89.592l45.456-45.46h0ZM455.3,136.209q4.724,4.35,13.117,4.351A23.274,23.274,0,0,0,476.9,139.2a12.951,12.951,0,0,0,4.306-3.12,10.755,10.755,0,0,1,2.2-1.824,3.8,3.8,0,0,1,1.8-.417,4.345,4.345,0,0,1,3.165,1.362,4.4,4.4,0,0,1,1.362,3.208,6.215,6.215,0,0,1-1.846,3.955,18.3,18.3,0,0,1-6.9,4.834,32.128,32.128,0,0,1-12.525,2.373,31.071,31.071,0,0,1-14.414-3.3,22.852,22.852,0,0,1-8.833-8.327,22.555,22.555,0,0,1-3.647-12.415v-6.108a27.264,27.264,0,0,1,3.274-13.118,23.145,23.145,0,0,1,9.074-9.382,24.529,24.529,0,0,1,12.305-3.3,28.551,28.551,0,0,1,7.317.9,22.933,22.933,0,0,1,6.35,2.746,6.05,6.05,0,0,1,1.824-1.714,4.413,4.413,0,0,1,5.361.791q1.252,1.363,1.253,4.614v7.646q0,3.253-1.253,4.637a4.159,4.159,0,0,1-3.23,1.384,4.113,4.113,0,0,1-2.9-1.011,6.9,6.9,0,0,1-1.626-3.779,5.483,5.483,0,0,0-1.231-2.857,12.481,12.481,0,0,0-5.031-3.164,18.689,18.689,0,0,0-6.482-1.186,15.862,15.862,0,0,0-7.427,1.758,16.233,16.233,0,0,0-5.977,5.712,16.764,16.764,0,0,0-2.592,9.405v5.844A14.144,14.144,0,0,0,455.3,136.209Zm-29.949,3.032q3.252,0,4.636,1.253a4.206,4.206,0,0,1,1.384,3.274,4.157,4.157,0,0,1-1.384,3.23q-1.385,1.252-4.636,1.252h-27.2q-3.253,0-4.636-1.252a4.207,4.207,0,0,1-1.385-3.274,4.156,4.156,0,0,1,1.385-3.23q1.383-1.253,4.636-1.253h9.1V104h-9.1q-3.253,0-4.636-1.252a4.562,4.562,0,0,1,0-6.548q1.383-1.252,4.636-1.252l27.2,0.044q3.252,0,4.636,1.23a4.14,4.14,0,0,1,1.384,3.252,4.206,4.206,0,0,1-1.384,3.274Q428.6,104,425.349,104h-9.1v35.244h9.1ZM378.547,104V148.25h-8.921L346.467,112v27.246h3.252q3.252,0,4.636,1.253a4.207,4.207,0,0,1,1.385,3.274,4.158,4.158,0,0,1-1.385,3.23q-1.385,1.252-4.636,1.252H337.9q-3.254,0-4.636-1.252a4.509,4.509,0,0,1-.022-6.482,6,6,0,0,1,4.218-1.275V104h-1.406q-3.252,0-4.636-1.252a4.565,4.565,0,0,1,0-6.548q1.385-1.252,4.636-1.252l10.415,0.044,23.027,36.123V104h-3.252q-3.252,0-4.636-1.252a4.565,4.565,0,0,1,0-6.548q1.385-1.252,4.636-1.252l11.822,0.044q3.252,0,4.636,1.23a4.14,4.14,0,0,1,1.384,3.252,4.259,4.259,0,0,1-1.362,3.252A5.931,5.931,0,0,1,378.547,104Zm-61.216,35.244q3.252,0,4.637,1.253a4.209,4.209,0,0,1,1.384,3.274,4.16,4.16,0,0,1-1.384,3.23q-1.385,1.252-4.637,1.252h-27.2q-3.252,0-4.636-1.252a4.206,4.206,0,0,1-1.384-3.274,4.155,4.155,0,0,1,1.384-3.23q1.385-1.253,4.636-1.253h9.1V104h-9.1q-3.252,0-4.636-1.252a4.565,4.565,0,0,1,0-6.548q1.385-1.252,4.636-1.252l27.2,0.044q3.252,0,4.637,1.23a4.143,4.143,0,0,1,1.384,3.252,4.21,4.21,0,0,1-1.384,3.274Q320.584,104,317.331,104h-9.1v35.244h9.1Zm-1.193-75.495a2.308,2.308,0,0,1-1.794-.769,3.81,3.81,0,0,1-.7-2.576V55.665h-5.493v19.58h3.369a3.808,3.808,0,0,1,2.575.7,2.337,2.337,0,0,1,.769,1.819,2.308,2.308,0,0,1-.769,1.794,3.808,3.808,0,0,1-2.575.7H299.805a3.811,3.811,0,0,1-2.576-.7,2.339,2.339,0,0,1-.769-1.819,2.312,2.312,0,0,1,.769-1.794,3.811,3.811,0,0,1,2.576-.7h3.345V55.665h-5.42V60.4a3.81,3.81,0,0,1-.7,2.576,2.337,2.337,0,0,1-1.819.769,2.309,2.309,0,0,1-1.794-.769,3.81,3.81,0,0,1-.7-2.576V50.636l25.928,0.024V60.4a3.81,3.81,0,0,1-.7,2.576A2.339,2.339,0,0,1,316.138,63.746Zm-50.4,17.236A13.046,13.046,0,0,1,256.7,77.3a15.321,15.321,0,0,1-4.981-11.841A15.4,15.4,0,0,1,256.7,53.59a13.048,13.048,0,0,1,9.033-3.686,13.181,13.181,0,0,1,9.8,4.431,15.455,15.455,0,0,1,4.236,11.121,15.423,15.423,0,0,1-4.236,11.1A13.18,13.18,0,0,1,265.733,80.982ZM272.007,57.9a8.041,8.041,0,0,0-12.524.012,10.72,10.72,0,0,0-2.759,7.544,10.676,10.676,0,0,0,2.759,7.532A8.061,8.061,0,0,0,272.007,73a10.669,10.669,0,0,0,2.759-7.544A10.714,10.714,0,0,0,272.007,57.9Zm-16.133,38.32a4.14,4.14,0,0,1,1.384,3.252,4.206,4.206,0,0,1-1.384,3.274Q254.49,104,251.238,104h-5.274v35.244h19.424v-8.525q0-3.252,1.252-4.636a4.207,4.207,0,0,1,3.274-1.385,4.156,4.156,0,0,1,3.23,1.385q1.252,1.383,1.253,4.636V148.25H231.726q-3.254,0-4.636-1.252a4.207,4.207,0,0,1-1.385-3.274,4.156,4.156,0,0,1,1.385-3.23q1.385-1.253,4.636-1.253h5.229V104h-5.229q-3.254,0-4.636-1.252a4.562,4.562,0,0,1,0-6.548q1.385-1.252,4.636-1.252l19.512,0.044Q254.489,94.988,255.874,96.219ZM225.728,80.982A13.046,13.046,0,0,1,216.7,77.3a15.321,15.321,0,0,1-4.981-11.841A15.4,15.4,0,0,1,216.7,53.59a13.048,13.048,0,0,1,9.033-3.686,13.181,13.181,0,0,1,9.8,4.431,15.455,15.455,0,0,1,4.236,11.121,15.423,15.423,0,0,1-4.236,11.1A13.18,13.18,0,0,1,225.728,80.982ZM232,57.9a8.041,8.041,0,0,0-12.524.012,10.72,10.72,0,0,0-2.759,7.544,10.676,10.676,0,0,0,2.759,7.532A8.061,8.061,0,0,0,232,73a10.669,10.669,0,0,0,2.759-7.544A10.714,10.714,0,0,0,232,57.9ZM213.8,94.988a4.189,4.189,0,0,1,3.23,1.362q1.252,1.363,1.253,4.614v7.646q0,3.253-1.253,4.637a4.159,4.159,0,0,1-3.23,1.384,4.113,4.113,0,0,1-2.9-1.011,6.9,6.9,0,0,1-1.626-3.779,5.475,5.475,0,0,0-1.231-2.857,12.481,12.481,0,0,0-5.031-3.164,18.689,18.689,0,0,0-6.482-1.186,15.865,15.865,0,0,0-7.427,1.758,16.233,16.233,0,0,0-5.977,5.712,16.764,16.764,0,0,0-2.592,9.405v5.844a14.144,14.144,0,0,0,4.724,10.855q4.724,4.35,13.117,4.351a23.274,23.274,0,0,0,8.482-1.363,12.951,12.951,0,0,0,4.306-3.12,10.755,10.755,0,0,1,2.2-1.824,3.8,3.8,0,0,1,1.8-.417,4.344,4.344,0,0,1,3.164,1.362,4.4,4.4,0,0,1,1.362,3.208,6.215,6.215,0,0,1-1.846,3.955,18.3,18.3,0,0,1-6.9,4.834,32.128,32.128,0,0,1-12.525,2.373,31.071,31.071,0,0,1-14.414-3.3,22.852,22.852,0,0,1-8.833-8.327,22.555,22.555,0,0,1-3.647-12.415v-6.108A27.264,27.264,0,0,1,174.8,106.3a23.145,23.145,0,0,1,9.074-9.382,24.529,24.529,0,0,1,12.305-3.3,28.551,28.551,0,0,1,7.317.9,22.933,22.933,0,0,1,6.35,2.746,6.05,6.05,0,0,1,1.824-1.714A4.191,4.191,0,0,1,213.8,94.988ZM197.637,80.25H193.1a76,76,0,0,0-3.418-7.129,16.17,16.17,0,0,0-2.869-4.016,10.42,10.42,0,0,0-3.234-2.014L180.5,69.7v5.542h1.807a3.813,3.813,0,0,1,2.576.7,2.34,2.34,0,0,1,.769,1.819,2.312,2.312,0,0,1-.769,1.794,3.813,3.813,0,0,1-2.576.7h-7.593a3.808,3.808,0,0,1-2.575-.7,2.336,2.336,0,0,1-.769-1.819,2.292,2.292,0,0,1,.781-1.794,3.815,3.815,0,0,1,2.563-.7h0.781V55.665h-0.781a3.808,3.808,0,0,1-2.575-.7,2.535,2.535,0,0,1,0-3.638,3.809,3.809,0,0,1,2.575-.7l7.593,0.024a3.864,3.864,0,0,1,2.576.684,2.3,2.3,0,0,1,.769,1.807,2.339,2.339,0,0,1-.769,1.819,3.813,3.813,0,0,1-2.576.7H180.5v7.422l8.887-7.642a3.859,3.859,0,0,1-1.074-1.05,2.289,2.289,0,0,1-.293-1.2,2.4,2.4,0,0,1,.769-1.855,3.766,3.766,0,0,1,2.576-.708l5.1,0.024a3.864,3.864,0,0,1,2.576.684,2.3,2.3,0,0,1,.769,1.807,2.346,2.346,0,0,1-.769,1.807,3.466,3.466,0,0,1-2.405.708l-8.984,7.861a15.929,15.929,0,0,1,4.724,4.395,31.116,31.116,0,0,1,3.918,7.324h1.343a3.765,3.765,0,0,1,2.551.7,2.52,2.52,0,0,1,.012,3.613A3.758,3.758,0,0,1,197.637,80.25Z" transform="translate(-50.969 -49.906)"/>
</svg>
