<svg aria-hidden="true" style="position: absolute; width: 0; height: 0; overflow: hidden;" version="1.1" xmlns="http://www.w3.org/2000/svg" xmlns:xlink="http://www.w3.org/1999/xlink">
<defs>
<symbol id="icon-ruler" viewBox="0 0 16 16">
<title>ruler</title>
<path d="M4.489 14.503v-1.014h0.506v1.014h0.507v-1.014h0.508v1.014h0.476v-1.521h0.507v1.521h0.507v-1.014h0.507v1.014h0.476v-1.014h0.507v1.014h0.508v-1.521h0.507v1.521h0.507v-1.014h0.475v1.014h0.507v-1.014h0.508v1.014h0.507v-1.521h0.476v1.521h1.521v-12.505l-12.505 12.505h2.492zM12.506 6.792v5.682h-5.682l5.682-5.683z"></path>
</symbol>
<symbol id="icon-tools" viewBox="0 0 16 16">
<title>tools</title>
<path d="M14.142 3.968c0.479 1.157 0.251 2.537-0.69 3.478-1.036 1.035-2.601 1.198-3.817 0.511l-0.88 0.96 0.627 0.63 0.375-0.375c0.191-0.192 0.502-0.192 0.694 0l3.041 3.072c0.192 0.191 0.192 0.502 0 0.694l-1.388 1.388c-0.191 0.192-0.502 0.192-0.694 0l-3.041-3.072c-0.192-0.191-0.192-0.502 0-0.694l0.342-0.342-0.598-0.6-4.205 4.595c-0.384 0.383-1.005 0.383-1.388 0l-0.347-0.347c-0.383-0.383-0.383-1.005 0-1.388l4.791-4.012-3.182-3.191-1.005-0-1.163-1.87 0.936-0.938 1.912 1.171 0.013 0.984 3.219 3.232 0.937-0.784c-0.915-1.248-0.82-3.006 0.308-4.134 0.936-0.936 2.309-1.169 3.463-0.698l-2.062 2.034 1.736 1.736 2.066-2.038zM3.325 12.967c-0.192-0.191-0.502-0.191-0.694 0s-0.192 0.502 0 0.694c0.192 0.191 0.502 0.191 0.694 0 0.192-0.193 0.192-0.503 0-0.694z"></path>
</symbol>
<symbol id="icon-envelop2" viewBox="0 0 16 16">
<title>envelop2</title>
<path d="M14.998 3c0.001 0.001 0.001 0.001 0.002 0.002v9.996c-0.001 0.001-0.001 0.001-0.002 0.002h-13.996c-0.001-0.001-0.001-0.001-0.002-0.002v-9.996c0.001-0.001 0.001-0.001 0.002-0.002h13.996zM15 2h-14c-0.55 0-1 0.45-1 1v10c0 0.55 0.45 1 1 1h14c0.55 0 1-0.45 1-1v-10c0-0.55-0.45-1-1-1v0z"></path>
<path d="M5.831 9.773l-3 2.182c-0.1 0.073-0.216 0.108-0.33 0.108-0.174 0-0.345-0.080-0.455-0.232-0.183-0.251-0.127-0.603 0.124-0.786l3-2.182c0.251-0.183 0.603-0.127 0.786 0.124s0.127 0.603-0.124 0.786z"></path>
<path d="M13.955 11.831c-0.11 0.151-0.282 0.232-0.455 0.232-0.115 0-0.23-0.035-0.33-0.108l-3-2.182c-0.251-0.183-0.307-0.534-0.124-0.786s0.534-0.307 0.786-0.124l3 2.182c0.251 0.183 0.307 0.535 0.124 0.786z"></path>
<path d="M13.831 4.955l-5.5 4c-0.099 0.072-0.215 0.108-0.331 0.108s-0.232-0.036-0.331-0.108l-5.5-4c-0.251-0.183-0.307-0.534-0.124-0.786s0.535-0.307 0.786-0.124l5.169 3.759 5.169-3.759c0.251-0.183 0.603-0.127 0.786 0.124s0.127 0.603-0.124 0.786v0z"></path>
</symbol>
<symbol id="icon-hour-glass3" viewBox="0 0 16 16">
<title>hour-glass3</title>
<path d="M5.939 9.532c-1.49 0.81-2.591 2.472-2.87 4.468h9.862c-0.279-1.996-1.379-3.658-2.87-4.468-1.061-0.754-1.061-1.116-1.061-1.532s0-0.778 1.061-1.532c1.49-0.81 2.591-2.472 2.87-4.468h-9.862c0.279 1.996 1.379 3.658 2.87 4.468 1.061 0.754 1.061 1.116 1.061 1.532s-0 0.778-1.061 1.532zM2 15h12v1h-12zM2 0h12v1h-12z"></path>
</symbol>
<symbol id="icon-knife" viewBox="0 0 16 16">
<title>knife</title>
<path d="M13 10h-10c-1.657 0-3 1.343-3 3s1.343 3 3 3h10c1.657 0 3-1.343 3-3s-1.343-3-3-3zM3 14c-0.552 0-1-0.448-1-1s0.448-1 1-1 1 0.448 1 1-0.448 1-1 1z"></path>
<path d="M3 9h2.78l2.927-4.212c0.946-1.361 0.609-3.23-0.752-4.176l-5.909 8.503c0.306-0.075 0.625-0.115 0.954-0.115z"></path>
<path d="M13 8h-5.308l-0.692 0.996v0.004h6c1.144 0 2.177 0.483 2.907 1.255-0.331-1.296-1.507-2.255-2.907-2.255z"></path>
</symbol>
<symbol id="icon-menu7" viewBox="0 0 16 16">
<title>menu7</title>
<path d="M1 3h14v2h-14v-2z"></path>
<path d="M1 7h14v2h-14v-2z"></path>
<path d="M1 11h14v2h-14v-2z"></path>
</symbol>
<symbol id="icon-sphere" viewBox="0 0 16 16">
<title>sphere</title>
<path d="M7.5 1c-4.142 0-7.5 3.358-7.5 7.5s3.358 7.5 7.5 7.5c4.142 0 7.5-3.358 7.5-7.5s-3.358-7.5-7.5-7.5zM11.744 11c0.134-0.632 0.219-1.303 0.246-2h1.991c-0.052 0.691-0.213 1.361-0.479 2h-1.758zM3.256 6c-0.134 0.632-0.219 1.303-0.246 2h-1.991c0.052-0.691 0.213-1.361 0.479-2h1.758zM10.719 6c0.15 0.64 0.241 1.31 0.27 2h-2.989v-2h2.719zM8 5v-2.927c0.228 0.066 0.454 0.178 0.675 0.334 0.415 0.293 0.813 0.744 1.149 1.304 0.233 0.388 0.434 0.819 0.601 1.289h-2.426zM5.176 3.711c0.336-0.561 0.734-1.012 1.149-1.304 0.222-0.156 0.447-0.268 0.675-0.334v2.927h-2.426c0.168-0.47 0.369-0.901 0.601-1.289zM7 6v2h-2.989c0.029-0.69 0.12-1.36 0.27-2h2.719zM1.498 11c-0.266-0.639-0.427-1.309-0.479-2h1.991c0.028 0.697 0.112 1.368 0.246 2h-1.758zM4.011 9h2.989v2h-2.719c-0.15-0.64-0.241-1.31-0.27-2zM7 12v2.927c-0.228-0.066-0.454-0.178-0.675-0.334-0.415-0.293-0.813-0.744-1.149-1.304-0.233-0.388-0.434-0.819-0.602-1.289h2.426zM9.825 13.289c-0.336 0.561-0.734 1.012-1.149 1.304-0.222 0.156-0.447 0.268-0.675 0.334v-2.927h2.426c-0.168 0.47-0.369 0.901-0.602 1.289zM8 11v-2h2.989c-0.029 0.69-0.12 1.36-0.27 2h-2.719zM11.99 8c-0.028-0.697-0.112-1.368-0.246-2h1.758c0.267 0.639 0.427 1.309 0.479 2h-1.991zM12.979 5h-1.498c-0.291-0.918-0.693-1.723-1.177-2.366 0.665 0.318 1.267 0.744 1.792 1.27 0.336 0.336 0.631 0.702 0.883 1.096zM2.904 3.904c0.526-0.526 1.128-0.952 1.792-1.27-0.483 0.643-0.886 1.448-1.177 2.366h-1.498c0.252-0.394 0.547-0.761 0.883-1.096zM2.021 12h1.498c0.291 0.918 0.693 1.723 1.177 2.366-0.665-0.318-1.267-0.744-1.792-1.27-0.336-0.336-0.631-0.702-0.883-1.096zM12.096 13.096c-0.526 0.526-1.128 0.952-1.792 1.27 0.483-0.643 0.886-1.448 1.177-2.366h1.498c-0.252 0.394-0.547 0.761-0.883 1.096z"></path>
</symbol>
<symbol id="icon-arrow-right3" viewBox="0 0 16 16">
<title>arrow-right3</title>
<path d="M5.5 0l-1.5 1.5 6.5 6.5-6.5 6.5 1.5 1.5 8-8-8-8z"></path>
</symbol>
</defs>
</svg>
